<svg width="512" height="512" viewBox="0 0 512 512"
     xmlns="http://www.w3.org/2000/svg">

  <!-- 背景圆角矩形 -->
  <rect
    x="32" y="32"
    width="448" height="448"
    rx="90" ry="90"
    fill="#0A2E8A"/>

  <!-- P 字形 -->
  <path
    d="
      M170 140
      H300
      C360 140 395 175 395 225
      C395 275 360 310 300 310
      H245
      V360
      C245 385 225 405 200 405
      H185
      C160 405 145 390 145 365
      V185
      C145 160 155 140 170 140
      Z

      M245 190
      V260
      H295
      C320 260 335 245 335 225
      C335 205 320 190 295 190
      H245
      Z
    "
    fill="#FFFFFF"/>

</svg>
